<svg xmlns="http://www.w3.org/2000/svg" viewBox="0 0 800 400" width="100%" height="100%">
  <defs>
    <linearGradient id="grad" x1="0%" y1="0%" x2="100%" y2="100%">
      <stop offset="0%" style="stop-color:#0f172a;stop-opacity:1" />
      <stop offset="100%" style="stop-color:#1e293b;stop-opacity:1" />
    </linearGradient>
  </defs>
  <rect width="100%" height="100%" fill="url(#grad)" />
  <circle cx="400" cy="200" r="120" fill="#38bdf8" opacity="0.1" />
  <path d="M400 110c-50 0-90 40-90 90 0 40 26 74 62 86 5 1 6-2 6-5v-17c-25 5-30-12-30-12-4-10-10-13-10-13-8-6 1-5 1-5 9 1 14 9 14 9 8 14 21 10 26 8 1-6 3-10 6-12-20-2-41-10-41-45 0-10 4-18 9-25-1-2-4-12 1-25 0 0 8-2 25 10a87 87 0 0 1 46 0c17-12 25-10 25-10 5 13 2 23 1 25 6 7 9 15 9 25 0 35-21 43-41 45 3 3 6 9 6 18v27c0 3 1 6 6 5 36-12 62-46 62-86 0-50-40-90-90-90z" fill="#f8fafc" opacity="0.8" />
  <text x="400" y="340" fill="#38bdf8" font-family="system-ui, sans-serif" font-size="24" font-weight="bold" text-anchor="middle">GitHub Connector</text>
</svg>
