<svg xmlns="http://www.w3.org/2000/svg" width="1600" height="900" viewBox="0 0 1600 900" role="img" aria-labelledby="title desc">
  <title id="title">Aura Work application preview placeholder</title>
  <desc id="desc">Replace this placeholder with an exported Aura Work application screenshot while keeping the same file path.</desc>
  <defs>
    <linearGradient id="bg" x1="0" y1="0" x2="1" y2="1">
      <stop offset="0%" stop-color="#0f172a"/>
      <stop offset="100%" stop-color="#1e293b"/>
    </linearGradient>
    <linearGradient id="accent" x1="0" y1="0" x2="1" y2="0">
      <stop offset="0%" stop-color="#38bdf8"/>
      <stop offset="100%" stop-color="#818cf8"/>
    </linearGradient>
  </defs>
  <rect width="1600" height="900" rx="36" fill="url(#bg)"/>
  <rect x="80" y="80" width="1440" height="740" rx="24" fill="#111827" stroke="#334155" stroke-width="2"/>
  <rect x="80" y="80" width="1440" height="68" rx="24" fill="#1f2937"/>
  <circle cx="128" cy="114" r="10" fill="#f87171"/>
  <circle cx="164" cy="114" r="10" fill="#fbbf24"/>
  <circle cx="200" cy="114" r="10" fill="#34d399"/>
  <rect x="120" y="190" width="240" height="590" rx="18" fill="#172033"/>
  <rect x="400" y="190" width="1060" height="590" rx="18" fill="#0f172a" stroke="#334155" stroke-width="2"/>
  <rect x="160" y="238" width="160" height="22" rx="11" fill="#334155"/>
  <rect x="160" y="292" width="132" height="18" rx="9" fill="#334155"/>
  <rect x="160" y="338" width="150" height="18" rx="9" fill="#334155"/>
  <rect x="160" y="384" width="116" height="18" rx="9" fill="#334155"/>
  <rect x="160" y="430" width="144" height="18" rx="9" fill="#334155"/>
  <rect x="456" y="244" width="624" height="44" rx="14" fill="url(#accent)" opacity="0.9"/>
  <rect x="456" y="328" width="920" height="26" rx="13" fill="#334155"/>
  <rect x="456" y="382" width="836" height="26" rx="13" fill="#334155"/>
  <rect x="456" y="436" width="876" height="26" rx="13" fill="#334155"/>
  <rect x="456" y="524" width="300" height="76" rx="18" fill="#1e293b" stroke="#475569"/>
  <rect x="786" y="524" width="300" height="76" rx="18" fill="#1e293b" stroke="#475569"/>
  <rect x="1116" y="524" width="260" height="76" rx="18" fill="#1e293b" stroke="#475569"/>
  <text x="800" y="690" text-anchor="middle" fill="#e2e8f0" font-family="Arial, sans-serif" font-size="64" font-weight="700">Aura Work</text>
  <text x="800" y="748" text-anchor="middle" fill="#94a3b8" font-family="Arial, sans-serif" font-size="28">Replace this file with the real app screenshot before the public release</text>
</svg>
